<svg width="248" height="51" viewBox="0 0 248 51" fill="none" xmlns="http://www.w3.org/2000/svg">
<rect x="43" y="21" width="162" height="9" rx="4.5" fill="#E4E3E7"/>
<rect x="43" width="205" height="8" rx="4" fill="#E4E3E7"/>
<rect y="43" width="205" height="8" rx="4" fill="#E4E3E7"/>
<g clip-path="url(#clip0_189_2)">
<path d="M27.1071 2.03115C25.0047 1.0686 22.7851 0.385736 20.5052 0C20.1933 0.557718 19.911 1.13153 19.6596 1.71905C17.231 1.3531 14.7614 1.3531 12.3328 1.71905C12.0813 1.1316 11.799 0.557785 11.4872 0C9.20579 0.388994 6.98482 1.07348 4.88027 2.03618C0.702194 8.21771 -0.430416 14.2457 0.135889 20.1881C2.58267 21.9959 5.32132 23.3708 8.23279 24.253C8.88837 23.3712 9.46847 22.4358 9.96694 21.4567C9.02016 21.1031 8.10635 20.6668 7.23609 20.1529C7.46513 19.9868 7.68914 19.8156 7.90559 19.6495C10.4378 20.8404 13.2017 21.4578 16 21.4578C18.7983 21.4578 21.5621 20.8404 24.0944 19.6495C24.3133 19.8282 24.5373 19.9994 24.7639 20.1529C23.8919 20.6676 22.9764 21.1047 22.028 21.4592C22.5258 22.4379 23.106 23.3725 23.7621 24.253C26.6761 23.3743 29.4168 22.0001 31.8641 20.1907C32.5285 13.2994 30.7289 7.32673 27.1071 2.03115ZM10.6843 16.5336C9.10616 16.5336 7.8024 15.1015 7.8024 13.3396C7.8024 11.5778 9.06085 10.1331 10.6792 10.1331C12.2976 10.1331 13.5913 11.5778 13.5636 13.3396C13.5359 15.1015 12.2926 16.5336 10.6843 16.5336ZM21.3157 16.5336C19.7351 16.5336 18.4363 15.1015 18.4363 13.3396C18.4363 11.5778 19.6948 10.1331 21.3157 10.1331C22.9366 10.1331 24.2202 11.5778 24.1925 13.3396C24.1648 15.1015 22.924 16.5336 21.3157 16.5336Z" fill="#71717A"/>
</g>
<path d="M222.723 37.2215C222.723 39.0717 221.212 40.5831 219.362 40.5831C217.511 40.5831 216 39.0717 216 37.2215C216 35.3714 217.511 33.86 219.362 33.86H222.723V37.2215Z" fill="#71717A"/>
<path d="M224.418 37.2215C224.418 35.3714 225.929 33.86 227.78 33.86C229.63 33.86 231.141 35.3714 231.141 37.2215V45.6385C231.141 47.4886 229.63 49 227.78 49C225.929 49 224.418 47.4886 224.418 45.6385V37.2215Z" fill="#71717A"/>
<path d="M227.78 23.7231C225.929 23.7231 224.418 22.2117 224.418 20.3616C224.418 18.5114 225.929 17 227.78 17C229.63 17 231.141 18.5114 231.141 20.3616V23.7231H227.78Z" fill="#71717A"/>
<path d="M227.779 25.417C229.629 25.417 231.14 26.9284 231.14 28.7786C231.14 30.6287 229.629 32.1401 227.779 32.1401H219.362C217.511 32.1401 216 30.6287 216 28.7786C216 26.9284 217.511 25.417 219.362 25.417H227.779Z" fill="#71717A"/>
<path d="M241.277 28.7786C241.277 26.9284 242.789 25.417 244.639 25.417C246.489 25.417 248 26.9284 248 28.7786C248 30.6287 246.489 32.1401 244.639 32.1401H241.277V28.7786Z" fill="#71717A"/>
<path d="M239.583 28.7785C239.583 30.6287 238.071 32.1401 236.221 32.1401C234.371 32.1401 232.859 30.6287 232.859 28.7785V20.3616C232.859 18.5114 234.371 17 236.221 17C238.071 17 239.583 18.5114 239.583 20.3616V28.7785Z" fill="#71717A"/>
<path d="M236.221 42.2769C238.071 42.2769 239.583 43.7883 239.583 45.6384C239.583 47.4886 238.071 49 236.221 49C234.371 49 232.859 47.4886 232.859 45.6384V42.2769H236.221Z" fill="#71717A"/>
<path d="M236.221 40.583C234.371 40.583 232.859 39.0716 232.859 37.2214C232.859 35.3713 234.371 33.8599 236.221 33.8599H244.638C246.488 33.8599 247.999 35.3713 247.999 37.2214C247.999 39.0716 246.488 40.583 244.638 40.583H236.221Z" fill="#71717A"/>
<rect x="43" y="21" width="162" height="9" rx="4.5" fill="#E4E3E7"/>
<rect x="43" width="205" height="8" rx="4" fill="#E4E3E7"/>
<rect y="43" width="205" height="8" rx="4" fill="#E4E3E7"/>
<g clip-path="url(#clip1_189_2)">
<path d="M27.1071 2.03115C25.0047 1.0686 22.7851 0.385736 20.5052 0C20.1933 0.557718 19.911 1.13153 19.6596 1.71905C17.231 1.3531 14.7614 1.3531 12.3328 1.71905C12.0813 1.1316 11.799 0.557785 11.4872 0C9.20579 0.388994 6.98482 1.07348 4.88027 2.03618C0.702194 8.21771 -0.430416 14.2457 0.135889 20.1881C2.58267 21.9959 5.32132 23.3708 8.23279 24.253C8.88837 23.3712 9.46847 22.4358 9.96694 21.4567C9.02016 21.1031 8.10635 20.6668 7.23609 20.1529C7.46513 19.9868 7.68914 19.8156 7.90559 19.6495C10.4378 20.8404 13.2017 21.4578 16 21.4578C18.7983 21.4578 21.5621 20.8404 24.0944 19.6495C24.3133 19.8282 24.5373 19.9994 24.7639 20.1529C23.8919 20.6676 22.9764 21.1047 22.028 21.4592C22.5258 22.4379 23.106 23.3725 23.7621 24.253C26.6761 23.3743 29.4168 22.0001 31.8641 20.1907C32.5285 13.2994 30.7289 7.32673 27.1071 2.03115ZM10.6843 16.5336C9.10616 16.5336 7.8024 15.1015 7.8024 13.3396C7.8024 11.5778 9.06085 10.1331 10.6792 10.1331C12.2976 10.1331 13.5913 11.5778 13.5636 13.3396C13.5359 15.1015 12.2926 16.5336 10.6843 16.5336ZM21.3157 16.5336C19.7351 16.5336 18.4363 15.1015 18.4363 13.3396C18.4363 11.5778 19.6948 10.1331 21.3157 10.1331C22.9366 10.1331 24.2202 11.5778 24.1925 13.3396C24.1648 15.1015 22.924 16.5336 21.3157 16.5336Z" fill="#71717A"/>
</g>
<path d="M222.723 37.2215C222.723 39.0717 221.212 40.5831 219.362 40.5831C217.511 40.5831 216 39.0717 216 37.2215C216 35.3714 217.511 33.86 219.362 33.86H222.723V37.2215Z" fill="#71717A"/>
<path d="M224.418 37.2215C224.418 35.3714 225.929 33.86 227.78 33.86C229.63 33.86 231.141 35.3714 231.141 37.2215V45.6385C231.141 47.4886 229.63 49 227.78 49C225.929 49 224.418 47.4886 224.418 45.6385V37.2215Z" fill="#71717A"/>
<path d="M227.78 23.7231C225.929 23.7231 224.418 22.2117 224.418 20.3616C224.418 18.5114 225.929 17 227.78 17C229.63 17 231.141 18.5114 231.141 20.3616V23.7231H227.78Z" fill="#71717A"/>
<path d="M227.779 25.417C229.629 25.417 231.14 26.9284 231.14 28.7786C231.14 30.6287 229.629 32.1401 227.779 32.1401H219.362C217.511 32.1401 216 30.6287 216 28.7786C216 26.9284 217.511 25.417 219.362 25.417H227.779Z" fill="#71717A"/>
<path d="M241.277 28.7786C241.277 26.9284 242.789 25.417 244.639 25.417C246.489 25.417 248 26.9284 248 28.7786C248 30.6287 246.489 32.1401 244.639 32.1401H241.277V28.7786Z" fill="#71717A"/>
<path d="M239.583 28.7785C239.583 30.6287 238.071 32.1401 236.221 32.1401C234.371 32.1401 232.859 30.6287 232.859 28.7785V20.3616C232.859 18.5114 234.371 17 236.221 17C238.071 17 239.583 18.5114 239.583 20.3616V28.7785Z" fill="#71717A"/>
<path d="M236.221 42.2769C238.071 42.2769 239.583 43.7883 239.583 45.6384C239.583 47.4886 238.071 49 236.221 49C234.371 49 232.859 47.4886 232.859 45.6384V42.2769H236.221Z" fill="#71717A"/>
<path d="M236.221 40.583C234.371 40.583 232.859 39.0716 232.859 37.2214C232.859 35.3713 234.371 33.8599 236.221 33.8599H244.638C246.488 33.8599 247.999 35.3713 247.999 37.2214C247.999 39.0716 246.488 40.583 244.638 40.583H236.221Z" fill="#71717A"/>
<defs>
<clipPath id="clip0_189_2">
<rect width="32" height="24.253" fill="white"/>
</clipPath>
<clipPath id="clip1_189_2">
<rect width="32" height="24.253" fill="white"/>
</clipPath>
</defs>
</svg>
